<svg width="768" height="320" viewBox="0 0 768 320" fill="none" xmlns="http://www.w3.org/2000/svg">
<g clip-path="url(#clip0_6072_111)">
<rect width="768" height="320" fill="#301534"/>
<path d="M-1012 -182C-790 -10 -732.863 71.8879 -533.5 143.5C-435 178.882 -372.919 170.726 -340.751 170.108C-236.264 168.098 -136.142 126.871 -42.1176 84.6127C-3.76397 67.3751 33.7637 48.4241 69.9449 26.9834C93.8482 12.8185 128.815 -6.93034 134.666 -37.4376C136.986 -49.5388 118.297 -49.6765 110.895 -47.2256C97.384 -42.7518 84.9452 -30.6817 74.8389 -21.5571C55.7075 -4.28419 37.7771 14.3914 21.6042 34.4742C-12.1243 76.3568 -46.4305 134.721 -12.5538 186.488C4.73263 212.903 31.3858 232.181 59.5576 245.615C115.74 272.406 178.763 284.357 240.336 289.761C404.774 304.193 569.3 286.3 723.343 226.139C803.098 194.991 881.892 155.6 947.568 99.8939C996.126 58.7077 1050.37 3.3457 1058.23 -63.0062C1069.16 -155.193 964.187 -199.068 888.94 -211.424C827.526 -221.508 765.195 -215.588 704.866 -201.836C626.608 -183.996 555.864 -154.166 490.629 -107.452C360.627 -14.359 255.679 120.961 218.163 278.375C202.523 344 201.515 416.585 223.656 480.926C245.108 543.264 292.852 591.502 347.704 625.849C412.821 666.623 484.865 687.989 560.543 699.059C661.017 713.755 763.362 711.292 863.571 696.062C1039.74 669.29 1216.3 607.631 1368.75 514.985C1471.97 452.26 1568.05 380.835 1648.81 290.56C1666.51 270.767 1680.62 249.685 1692.55 226.039C1836.11 -58.5 1759.5 -145.528 1759.5 -151" stroke="#AD28EB" stroke-width="3" stroke-linecap="round"/>
</g>
<defs>
<clipPath id="clip0_6072_111">
<rect width="768" height="320" fill="white"/>
</clipPath>
</defs>
</svg>
